<?xml version="1.0" encoding="utf-8"?>
<!-- Generator: Adobe Illustrator 21.1.0, SVG Export Plug-In . SVG Version: 6.00 Build 0)  -->
<svg version="1.1" id="Ebene_1" xmlns="http://www.w3.org/2000/svg" xmlns:xlink="http://www.w3.org/1999/xlink" x="0px" y="0px"
	 viewBox="0 0 64 64" style="enable-background:new 0 0 64 64;" xml:space="preserve">
<style type="text/css">
	.st0{clip-path:url(#SVGID_2_);fill:#005CA9;}
</style>
<g>
	<defs>
		<rect id="SVGID_1_" width="64" height="64"/>
	</defs>
	<clipPath id="SVGID_2_">
		<use xlink:href="#SVGID_1_"  style="overflow:visible;"/>
	</clipPath>
	<path class="st0" d="M14,53.9c-2.4-0.4-6-2-6-5.9V31c0-3.4,2.6-5,5-5h22c2.4,0,5,2.6,5,5v5h2v-5c0-3.5-3.5-7-7-7H13
		c-3.5,0-7,2.4-7,7v17c0,5.5,5.3,8,9,8c0.6,0,1-0.4,1-1V34h-2V53.9z"/>
	<rect x="26" y="34" class="st0" width="6" height="2"/>
	<path class="st0" d="M24,22c4.4,0,8-3.6,8-8c0-4.4-3.6-8-8-8c-4.4,0-8,3.6-8,8C16,18.4,19.6,22,24,22 M24,8c3.3,0,6,2.7,6,6
		c0,3.3-2.7,6-6,6c-3.3,0-6-2.7-6-6C18,10.7,20.7,8,24,8"/>
	<path class="st0" d="M54,44H41.2l-7.8-3.9c-0.3-0.2-0.7-0.1-1,0C32.2,40.3,32,40.7,32,41v13c0,3.5,2.5,6,6,6h16c3.5,0,6-2.5,6-6v-4
		C60,46.5,57.5,44,54,44 M58,54c0,2.4-1.6,4-4,4H38c-2.4,0-4-1.6-4-4V42.6l6.6,3.3C40.7,46,40.8,46,41,46h13c2.4,0,4,1.6,4,4V54z"/>
	<rect x="38" y="49" class="st0" width="16" height="2"/>
	<rect x="38" y="53" class="st0" width="16" height="2"/>
</g>
</svg>
