<svg xmlns="http://www.w3.org/2000/svg" xmlns:xlink="http://www.w3.org/1999/xlink" viewBox="0 0 66 66"><defs><style>.cls-1{fill:none;}.cls-2{clip-path:url(#clip-path);}.cls-3{fill:#005ca9;}</style><clipPath id="clip-path"><rect class="cls-1" x="1" y="1" width="64" height="64"/></clipPath></defs><title>erster-kontakt</title><g id="service"><g class="cls-2"><path class="cls-3" d="M21,54.92c-2.43-.35-6-2-6-5.92V32a4.79,4.79,0,0,1,5-5H42a5.49,5.49,0,0,1,5,5v2h2V32a7.48,7.48,0,0,0-7-7H20a6.78,6.78,0,0,0-7,7V49c0,5.52,5.26,8,9,8a1,1,0,0,0,1-1V35H21Z"/><rect class="cls-3" x="33" y="35" width="6" height="2"/><path class="cls-3" d="M31,23a8,8,0,1,0-8-8,8,8,0,0,0,8,8M31,9a6,6,0,1,1-6,6,6,6,0,0,1,6-6"/><path class="cls-3" d="M36.6,62a6.84,6.84,0,0,1-4.81-2L30,58.18a1,1,0,0,1,0-1.42l6.59-6.54a1,1,0,0,1,1.41,0l2.5,2.5L47.2,46l-2.53-2.53a1,1,0,0,1,0-1.41l6-6a1,1,0,0,1,.71-.29h0a1,1,0,0,1,.71.29l1.8,1.8a6.78,6.78,0,0,1,2,5.73A21.73,21.73,0,0,1,37.52,61.93,6.38,6.38,0,0,1,36.6,62Zm-4.48-4.52,1.09,1.09a4.77,4.77,0,0,0,4,1.39A19.71,19.71,0,0,0,53.81,43.38a4.77,4.77,0,0,0-1.39-4l-1.09-1.09L46.79,42.8l2.53,2.53a1,1,0,0,1,0,1.41l-8.1,8.1a1,1,0,0,1-1.41,0l-2.5-2.5Z"/></g></g></svg>