<?xml version="1.0" encoding="UTF-8"?>
<svg width="65px" height="65px" viewBox="0 0 65 65" version="1.1" xmlns="http://www.w3.org/2000/svg" xmlns:xlink="http://www.w3.org/1999/xlink">
    <!-- Generator: Sketch 52.2 (67145) - http://www.bohemiancoding.com/sketch -->
    <title>Artboard</title>
    <desc>Created with Sketch.</desc>
    <g id="Artboard" stroke="none" stroke-width="1" fill="none" fill-rule="evenodd">
        <g id="Pictogram/Service/Expertencheck">
            <g id="Group">
                <path d="M20.0041,53.9225 C17.5721,53.5675 14.0041,51.9445 14.0041,48.0005 L14.0041,31.0005 C14.0041,27.5655 16.5961,26.0005 19.0041,26.0005 L41.0041,26.0005 C43.4341,26.0005 46.0041,28.5705 46.0041,31.0005 L46.0041,38.998291 L48.0041,38.998291 L48.0041,31.0005 C48.0041,27.4675 44.5361,24.0005 41.0041,24.0005 L19.0041,24.0005 C15.5251,24.0005 12.0041,26.4045 12.0041,31.0005 L12.0041,48.0005 C12.0041,53.5185 17.2671,56.0005 21.0041,56.0005 C21.5571,56.0005 22.0041,55.5535 22.0041,55.0005 L22.0041,34.0005 L20.0041,34.0005 L20.0041,53.9225 Z" id="Fill-1" fill="#005CA9"></path>
                <polygon id="Fill-3" fill="#005CA9" points="32.004 36 38.004 36 38.004 34 32.004 34"></polygon>
                <path d="M30.0041,8.0007 C33.3131,8.0007 36.0041,10.6917 36.0041,14.0007 C36.0041,17.3097 33.3131,20.0007 30.0041,20.0007 C26.6951,20.0007 24.0041,17.3097 24.0041,14.0007 C24.0041,10.6917 26.6951,8.0007 30.0041,8.0007 M30.0041,22.0007 C34.4151,22.0007 38.0041,18.4117 38.0041,14.0007 C38.0041,9.5897 34.4151,6.0007 30.0041,6.0007 C25.5931,6.0007 22.0041,9.5897 22.0041,14.0007 C22.0041,18.4117 25.5931,22.0007 30.0041,22.0007" id="Fill-5" fill="#005CA9"></path>
                <path d="M42.01,42.997 C38.143,42.997 34.997,46.144 34.997,50.011 C34.997,53.878 38.143,57.025 42.01,57.025 C45.877,57.025 49.024,53.878 49.024,50.011 C49.024,46.144 45.877,42.997 42.01,42.997 M42.01,59.022 C37.042,59.022 33,54.98 33,50.011 C33,45.042 37.042,41 42.01,41 C46.98,41 51.021,45.042 51.021,50.011 C51.021,54.98 46.98,59.022 42.01,59.022" id="Fill-6" fill="#005CA9"></path>
                <polygon id="Stroke-7" fill="#005CA9" fill-rule="nonzero" points="39.8319762 46.5681887 38.1680238 47.6778113 42.1798741 53.693846 55.4668697 44.8319372 54.3571303 43.1680628 42.7341259 50.920154"></polygon>
                <polygon id="Clip-4" points="-1.42108547e-14 64.001 64.001 64.001 64.001 -1.42108547e-14 -1.42108547e-14 -1.42108547e-14"></polygon>
            </g>
        </g>
    </g>
</svg>