<svg xmlns="http://www.w3.org/2000/svg" xmlns:xlink="http://www.w3.org/1999/xlink" viewBox="0 0 66 66"><defs><style>.cls-1{fill:none;}.cls-2{clip-path:url(#clip-path);}.cls-3{fill:#005ca9;}</style><clipPath id="clip-path"><rect class="cls-1" x="1" y="1" width="64" height="64"/></clipPath></defs><title>lieferungservice</title><g id="service"><g class="cls-2"><path class="cls-3" d="M60.45,44.1l-5.79-2.89L48.8,33.4A1,1,0,0,0,48,33H39V28a1,1,0,0,0-1-1H6a1,1,0,0,0-1,1V56a1,1,0,0,0,1,1h7.1a5,5,0,0,0,9.8,0H43.1a5,5,0,0,0,9.8,0H60a1,1,0,0,0,1-1V45a1,1,0,0,0-.55-.89M18,59a3,3,0,1,1,3-3,3,3,0,0,1-3,3m0-8a5,5,0,0,0-4.9,4H7V29H37V55H22.9A5,5,0,0,0,18,51m30,8a3,3,0,1,1,3-3,3,3,0,0,1-3,3m11-4H52.9a5,5,0,0,0-9.8,0H39V35h8.5l5.7,7.6a1,1,0,0,0,.35.3L59,45.62Z"/></g></g></svg>