<svg xmlns="http://www.w3.org/2000/svg" xmlns:xlink="http://www.w3.org/1999/xlink" viewBox="0 0 66 66"><defs><style>.cls-1{fill:none;}.cls-2{clip-path:url(#clip-path);}.cls-3{fill:#005ca8;}</style><clipPath id="clip-path"><rect class="cls-1" x="1" y="1" width="64" height="64"/></clipPath></defs><title>montageservice</title><g id="service"><g class="cls-2"><path class="cls-3" d="M15,54.92c-2.43-.35-6-2-6-5.92V32a4.79,4.79,0,0,1,5-5H36a5.49,5.49,0,0,1,5,5v3h2V32a7.48,7.48,0,0,0-7-7H14a6.78,6.78,0,0,0-7,7V49c0,5.52,5.26,8,9,8a1,1,0,0,0,1-1V35H15Z"/><rect class="cls-3" x="27" y="35" width="6" height="2"/><path class="cls-3" d="M25,23a8,8,0,1,0-8-8,8,8,0,0,0,8,8M25,9a6,6,0,1,1-6,6,6,6,0,0,1,6-6"/><path class="cls-3" d="M63,36.12a1,1,0,0,0-1.57-.73l-3.6,2.54L54.23,36.8l.1-3.71L58,30.52a1,1,0,0,0-.16-1.73A9.15,9.15,0,0,0,54.09,28a9.05,9.05,0,0,0-5.24,1.65,8.89,8.89,0,0,0-3.68,8.67l-22.74,16a1,1,0,0,0-.24,1.4l3.45,4.86a1,1,0,0,0,1.39.24l22.74-16A9,9,0,0,0,63,36.12m-4.91,6.49a7.12,7.12,0,0,1-7.8.17,1,1,0,0,0-1.11,0L26.69,58.61l-2.3-3.23,22.45-15.8a1,1,0,0,0,.4-1A6.91,6.91,0,0,1,50,31.28a7.16,7.16,0,0,1,5.14-1.21l-2.36,1.66a1,1,0,0,0-.42.79l-.14,5a1,1,0,0,0,.69,1L57.65,40a1,1,0,0,0,.88-.13l2.35-1.66a7,7,0,0,1-2.83,4.41"/></g></g></svg>