<?xml version="1.0" encoding="utf-8"?>
<!-- Generator: Adobe Illustrator 21.1.0, SVG Export Plug-In . SVG Version: 6.00 Build 0)  -->
<svg version="1.1" id="Ebene_1" xmlns="http://www.w3.org/2000/svg" xmlns:xlink="http://www.w3.org/1999/xlink" x="0px" y="0px"
	 viewBox="0 0 141.2 66" style="enable-background:new 0 0 141.2 66;" xml:space="preserve">
<style type="text/css">
	.st0{clip-path:url(#SVGID_2_);}
	.st1{fill:#005CA9;}
	.st2{clip-path:url(#SVGID_4_);fill:#005CA8;}
</style>
<title>lieferungservice</title>
<g id="service">
	<g>
		<defs>
			<rect id="SVGID_1_" x="1" y="1" width="64" height="64"/>
		</defs>
		<clipPath id="SVGID_2_">
			<use xlink:href="#SVGID_1_"  style="overflow:visible;"/>
		</clipPath>
		<g class="st0">
			<path class="st1" d="M60.5,44.1l-5.8-2.9l-5.9-7.8C48.6,33.1,48.3,33,48,33h-9v-5c0-0.6-0.4-1-1-1H6c-0.6,0-1,0.4-1,1v28
				c0,0.6,0.4,1,1,1h7.1c0.5,2.7,3.2,4.5,5.9,3.9c2-0.4,3.5-1.9,3.9-3.9h20.2c0.5,2.7,3.2,4.5,5.9,3.9c2-0.4,3.5-1.9,3.9-3.9H60
				c0.6,0,1-0.4,1-1V45C61,44.6,60.8,44.3,60.5,44.1 M18,59c-1.7,0-3-1.3-3-3s1.3-3,3-3s3,1.3,3,3S19.7,59,18,59 M18,51
				c-2.4,0-4.4,1.7-4.9,4H7V29h30v26H22.9C22.4,52.7,20.4,51,18,51 M48,59c-1.7,0-3-1.3-3-3s1.3-3,3-3s3,1.3,3,3S49.7,59,48,59
				 M59,55h-6.1c-0.5-2.7-3.2-4.5-5.9-3.9c-2,0.4-3.5,1.9-3.9,3.9H39V35h8.5l5.7,7.6c0.1,0.1,0.2,0.2,0.3,0.3l5.5,2.7V55z"/>
		</g>
	</g>
</g>
<g>
	<defs>
		<rect id="SVGID_3_" x="74" y="1" width="64" height="64"/>
	</defs>
	<clipPath id="SVGID_4_">
		<use xlink:href="#SVGID_3_"  style="overflow:visible;"/>
	</clipPath>
	<path class="st2" d="M88,54.9c-2.4-0.4-6-2-6-5.9V32c0-3.4,2.6-5,5-5h22c2.4,0,5,2.6,5,5v3h2v-3c0-3.5-3.5-7-7-7H87
		c-3.5,0-7,2.4-7,7v17c0,5.5,5.3,8,9,8c0.6,0,1-0.4,1-1V35h-2V54.9z"/>
	<rect x="100" y="35" class="st2" width="6" height="2"/>
	<path class="st2" d="M98,23c4.4,0,8-3.6,8-8c0-4.4-3.6-8-8-8c-4.4,0-8,3.6-8,8C90,19.4,93.6,23,98,23 M98,9c3.3,0,6,2.7,6,6
		c0,3.3-2.7,6-6,6c-3.3,0-6-2.7-6-6C92,11.7,94.7,9,98,9"/>
	<path class="st2" d="M136,36.1c0-0.4-0.3-0.7-0.6-0.8c-0.3-0.1-0.7-0.1-1,0.1l-3.6,2.5l-3.6-1.1l0.1-3.7l3.6-2.6
		c0.3-0.2,0.5-0.6,0.4-0.9c0-0.4-0.3-0.7-0.6-0.8c-1.2-0.5-2.4-0.8-3.7-0.8c-1.9,0-3.7,0.6-5.2,1.6c-2.8,2-4.2,5.3-3.7,8.7l-22.7,16
		c-0.2,0.2-0.4,0.4-0.4,0.6c0,0.3,0,0.5,0.2,0.7l3.5,4.9c0.2,0.3,0.5,0.4,0.8,0.4c0.2,0,0.4-0.1,0.6-0.2l22.7-16
		c1.3,0.7,2.8,1.1,4.3,1.1c1.9,0,3.6-0.6,5.2-1.6C134.9,42.4,136.3,39.3,136,36.1 M131.1,42.6c-2.3,1.6-5.5,1.7-7.8,0.2
		c-0.3-0.2-0.8-0.2-1.1,0L99.7,58.6l-2.3-3.2l22.4-15.8c0.3-0.2,0.5-0.6,0.4-1c-0.6-2.8,0.4-5.6,2.8-7.2c1.5-1,3.3-1.5,5.1-1.2
		l-2.4,1.7c-0.3,0.2-0.4,0.5-0.4,0.8l-0.1,5c0,0.4,0.3,0.8,0.7,1l4.7,1.5c0.3,0.1,0.6,0,0.9-0.1l2.4-1.7
		C133.6,40,132.6,41.6,131.1,42.6"/>
</g>
</svg>
