<?xml version="1.0" encoding="UTF-8"?>
<svg width="178px" height="136px" viewBox="0 0 178 136" version="1.1" xmlns="http://www.w3.org/2000/svg" xmlns:xlink="http://www.w3.org/1999/xlink">
    <!-- Generator: Sketch 52.2 (67145) - http://www.bohemiancoding.com/sketch -->
    <title>Pictogram/Neue Küche</title>
    <desc>Created with Sketch.</desc>
    <g id="Pictogram/Neue-Küche" stroke="none" stroke-width="1" fill="none" fill-rule="evenodd">
        <g id="Group-30" transform="translate(12.000000, 20.000000)" fill="#005AAD">
            <path d="M58.2524788,53.5549873 L108.037836,53.5549873 L133.01795,53.6057737 C134.113254,53.6080008 135,54.5005473 135,55.6007899 L135,95.0049797 C135,96.106799 134.110806,97 133.01393,97 L19.0048474,97 C17.9081612,97 17.0190461,96.1070968 17.0187774,95.0054684 L17.0000001,17.9955089 C16.9997314,16.8934988 17.8890038,16 18.98607,16 L56.2664088,16 C57.363285,16 58.2524788,16.893201 58.2524788,17.9950203 L58.2524788,53.5549873 Z M56.2664088,57.5450279 C55.1695326,57.5450279 54.2803388,56.6518269 54.2803388,55.5500076 L54.2803388,19.9900406 L20.9726264,19.9900406 L20.9904309,93.0099594 L131.02786,93.0099594 L131.02786,57.5917762 L108.035826,57.5450279 L56.2664088,57.5450279 Z" id="Stroke-1" fill-rule="nonzero"></path>
            <polygon id="Stroke-3" fill-rule="nonzero" points="49 61 49 65 37 65 37 61"></polygon>
            <polygon id="Stroke-4" fill-rule="nonzero" points="82 61 82 65 70 65 70 61"></polygon>
            <polygon id="Stroke-5" fill-rule="nonzero" points="121 61 121 65 109 65 109 61"></polygon>
            <g id="Group-12" transform="translate(54.000000, 38.000000)" fill-rule="nonzero">
                <polygon id="Stroke-6" points="4.25614035 57.3419636 0.3 57.3419636 0.3 16 4.25614035 16"></polygon>
                <polygon id="Stroke-8" points="43.6039947 57.7077091 39.6478544 57.7077091 39.6478544 17.7200727 43.6039947 17.7200727"></polygon>
                <path d="M24.0652649,17.9918545 L20.1091246,17.9918545 L20.1091246,5.96203636 C20.1091246,4.8949695 19.2533157,4.02967273 18.1979491,4.02967273 C17.1419179,4.02967273 16.2860544,4.89491425 16.2860544,5.96203636 L16.2860544,7.98458182 L12.329914,7.98458182 L12.329914,5.96203636 C12.329914,2.68566086 14.9571151,0.0296727273 18.1979491,0.0296727273 C21.4382317,0.0296727273 24.0652649,2.6858305 24.0652649,5.96203636 L24.0652649,17.9918545 Z" id="Stroke-10"></path>
            </g>
            <polygon id="Stroke-13" fill-rule="nonzero" points="112 39 112 35 128 35 128 39"></polygon>
            <polygon id="Stroke-14" fill-rule="nonzero" points="118 29 122 29 122 45 118 45"></polygon>
            <g id="Group-29">
                <polygon id="Stroke-15" fill-rule="nonzero" points="69.9149597 7.11362209 69.9149597 3.08455233 79.7040592 3.08455233 79.7040592 7.11362209"></polygon>
                <polygon id="Stroke-17" fill-rule="nonzero" points="72.8154336 0.154319767 76.8035853 0.154319767 76.8035853 10.0438547 72.8154336 10.0438547"></polygon>
                <polygon id="Stroke-19" fill-rule="nonzero" points="0.549618009 16.7430988 0.549618009 12.7140291 10.3387175 12.7140291 10.3387175 16.7430988"></polygon>
                <polygon id="Stroke-21" fill-rule="nonzero" points="3.45009194 9.78379651 7.4382436 9.78379651 7.4382436 19.6733314 3.45009194 19.6733314"></polygon>
                <path d="M136.751523,19.8725872 C136.751523,20.985343 135.858902,21.8871221 134.757447,21.8871221 C133.655267,21.8871221 132.763372,20.985343 132.763372,19.8725872 C132.763372,18.7598314 133.655267,17.8580523 134.757447,17.8580523 C135.858902,17.8580523 136.751523,18.7598314 136.751523,19.8725872" id="Fill-23"></path>
                <path d="M154.490024,62.1166512 C154.490024,63.6865233 153.230493,64.9589767 151.676564,64.9589767 C150.123361,64.9589767 148.863105,63.6865233 148.863105,62.1166512 C148.863105,60.5467791 150.123361,59.2743256 151.676564,59.2743256 C153.230493,59.2743256 154.490024,60.5467791 154.490024,62.1166512" id="Fill-25"></path>
                <path d="M95.0359645,28.443957 C95.0359645,29.5567128 94.1433436,30.4584919 93.0418886,30.4584919 C91.9404336,30.4584919 91.0478128,29.5567128 91.0478128,28.443957 C91.0478128,27.3312012 91.9404336,26.4294221 93.0418886,26.4294221 C94.1433436,26.4294221 95.0359645,27.3312012 95.0359645,28.443957" id="Fill-27"></path>
            </g>
        </g>
    </g>
</svg>