<svg xmlns="http://www.w3.org/2000/svg" xmlns:xlink="http://www.w3.org/1999/xlink" viewBox="0 0 66 66"><defs><style>.cls-1{fill:none;}.cls-2{clip-path:url(#clip-path);}.cls-3{fill:#005ca9;}</style><clipPath id="clip-path"><rect class="cls-1" x="1" y="1" width="64" height="64"/></clipPath></defs><title>aufmassservice</title><g id="service"><g class="cls-2"><path class="cls-3" d="M15,54.92c-2.43-.35-6-2-6-5.92V32a4.79,4.79,0,0,1,5-5H36a5.49,5.49,0,0,1,5,5v2h2V32a7.48,7.48,0,0,0-7-7H14a6.78,6.78,0,0,0-7,7V49c0,5.52,5.26,8,9,8a1,1,0,0,0,1-1V35H15Z"/><rect class="cls-3" x="27" y="35" width="6" height="2"/><path class="cls-3" d="M25,23a8,8,0,1,0-8-8,8,8,0,0,0,8,8M25,9a6,6,0,1,1-6,6,6,6,0,0,1,6-6"/><path class="cls-3" d="M59.82,36l-4.64-6.55a1,1,0,0,0-.65-.41,1,1,0,0,0-.75.18L21.41,52.64A1,1,0,0,0,21.18,54l4.64,6.55a1,1,0,0,0,.65.41h.16a1,1,0,0,0,.59-.19L59.59,37.36A1,1,0,0,0,59.82,36M26.87,58.6l-3.48-4.92,3.23-2.34,1.73,2.45L30,52.63l-1.75-2.47,4-2.93L34,49.68l1.63-1.16-1.75-2.47,4-2.93,1.73,2.45,1.63-1.15L39.57,42l4-2.93,1.73,2.45L47,40.32l-1.75-2.47,4-2.93L51,37.37l1.63-1.16L50.9,33.75l3.24-2.34,3.48,4.92Z"/></g></g></svg>